<svg width="60" height="60" viewBox="0 0 60 60" fill="none" xmlns="http://www.w3.org/2000/svg">
<path d="M26.189 6.29346L46.9353 18.2714V42.2272L26.189 54.2051L5.44262 42.2272V18.2714L26.189 6.29346Z" fill="#07B7ED"/>
<path d="M33.9034 6.29346L54.6498 18.2714V42.2272L33.9034 54.2051L13.1571 42.2272L13.1571 18.2714L33.9034 6.29346Z" fill="#F827F0"/>
<path d="M11.0799 18.9202L30.1354 8.07491L49.0555 19.1548L48.9201 41.0801L29.8646 51.9254L10.9445 40.8455L11.0799 18.9202Z" fill="#05166B"/>
<path fill-rule="evenodd" clip-rule="evenodd" d="M35.0815 32.4008L35.3387 33.3681L35.0654 33.4252L34.9487 33.1406C34.9111 33.0702 34.9428 33.1134 34.8923 33.0712L34.6878 33.108L34.9365 34.0205C34.7711 34.0384 34.5298 34.101 34.3916 34.0706L33.9593 32.5307L33.6135 32.4558L34.0696 34.1467C33.5186 34.1948 33.5621 34.3267 33.4771 33.9979L32.9253 31.969C33.1903 32.0003 34.2859 32.2117 34.4723 32.3423L34.6329 32.8893L34.8605 32.8436C34.8436 32.6828 34.7744 32.5588 34.8045 32.4555L35.0815 32.4008ZM27.1273 31.9536L24.795 40.558L24.0851 40.4416C24.1356 39.605 24.2608 38.7032 24.3517 37.8574C24.6142 35.4137 24.7119 35.3989 25.3497 33.0887C25.6139 32.1315 25.4758 32.3327 25.9422 32.2213C26.3394 32.1264 26.7192 32.0262 27.1273 31.9536ZM33.9444 29.543C33.8231 30.4775 32.434 30.6306 32.0145 29.8649C31.7246 29.3355 31.9537 28.9942 32.2178 28.6854L31.5671 26.2746C31.4632 25.8981 31.3032 25.4326 31.2314 25.0549C31.189 24.8322 31.4086 24.0213 31.5185 23.8899C31.7053 23.8817 31.7085 23.9043 31.8172 24.005C31.9013 24.0831 31.9504 24.1147 32.0234 24.1883C32.171 24.337 32.2001 24.5217 32.2648 24.7627L32.9594 27.2937C33.0402 27.5844 33.171 28.3554 33.3336 28.5149C33.4137 28.5935 33.6189 28.6543 33.7879 28.8788C33.9068 29.0367 33.9789 29.2769 33.9444 29.543ZM28.4742 26.2661C28.2539 27.0636 27.9873 27.8916 27.8168 28.6854C27.9301 28.8288 28.0826 28.9648 28.1313 29.208C28.1826 29.4643 28.1312 29.7154 28.0155 29.8938C27.819 30.1967 27.3982 30.4354 26.9009 30.3452C26.1804 30.2146 25.8423 29.3998 26.2739 28.8543C26.467 28.6103 26.6332 28.5841 26.7096 28.5104C27.0124 28.2182 27.6488 24.5211 28.0365 24.1607C28.1032 24.0986 28.1829 24.0435 28.2519 23.9858C28.3669 23.8898 28.3486 23.881 28.5233 23.8906C28.6508 24.056 28.8522 24.8482 28.8003 25.0867C28.719 25.4599 28.5778 25.891 28.4742 26.2661ZM30.202 24.7505L30.2017 26.9634L29.8366 26.9623L29.8421 24.7396L30.202 24.7505ZM31.2417 26.1088L30.3651 26.0928L30.3704 25.6968L31.1266 25.6921L31.2417 26.1088ZM29.6711 25.7092L29.6762 26.1043L28.7884 26.1048L28.9205 25.6924L29.6711 25.7092ZM35.4122 26.109L32.9253 26.1081L32.9357 25.6844L35.4143 25.6822L35.4122 26.109ZM31.3488 22.7953C31.1456 24.1214 31.4427 24.8892 30.5171 25.2909C30.4946 24.7713 30.6029 23.493 30.4088 23.3022C30.3577 23.2521 30.3953 23.2911 30.3293 23.2403C30.2999 23.2178 30.2918 23.2667 30.2689 23.1954C30.2634 23.1783 30.2473 23.1806 30.2377 23.1719C30.7912 23.1358 30.9482 22.9727 31.3488 22.7953ZM28.6981 22.7995L28.5128 22.6944L28.5913 23.7312C28.1078 23.6935 28.1014 23.7936 27.8519 23.9883L28.2669 22.4439L28.6981 22.7995ZM29.8039 23.1765L29.6088 23.3173C29.4586 23.4931 29.5333 24.9171 29.5251 25.2921C29.0831 25.0666 28.882 24.9142 28.8312 24.3048C28.7885 23.7925 28.7484 23.3013 28.6981 22.7995C29.0861 22.9774 29.2659 23.1355 29.8039 23.1765ZM32.053 20.8103C32.2684 21.9667 31.3694 22.8757 30.3864 23.0163C29.1668 23.1906 28.1528 22.4417 27.9849 21.4607C27.7808 20.2675 28.6994 19.4059 29.7139 19.2693C30.8891 19.1109 31.8717 19.8375 32.053 20.8103ZM30.4134 18.4386L30.4125 19.173L29.6361 19.1912L29.6403 18.4171L30.4134 18.4386ZM30.4171 18.2234L29.6344 18.2232L29.6488 15.9319C29.9318 15.7942 30.1047 15.8107 30.4101 15.934L30.4171 18.2234ZM27.1085 26.1102L24.6092 26.0909L24.6149 25.6861L27.1106 25.6827L27.1085 26.1102ZM23.752 39.1854L23.9758 39.186L23.8968 39.8217L23.6899 39.807L23.752 39.1854ZM24.5415 40.7108L24.2811 41.6179C24.2387 41.253 24.224 41.0448 24.3056 40.679L24.5415 40.7108ZM33.8894 30.065C33.8727 30.5316 34.344 31.5331 34.3795 32.0755L32.8512 31.6949L32.5198 30.4487C33.3382 30.5743 33.4406 30.4245 33.8894 30.065ZM33.6127 34.4089L34.9788 34.2258C35.1027 34.479 35.2909 35.3046 35.3782 35.6324C35.5227 36.1755 35.9247 39.7995 35.9377 40.4263L35.721 40.496C35.7384 40.8886 35.8232 41.1544 35.7493 41.605C35.6564 41.4625 35.6072 41.1891 35.5543 40.9984C35.3382 40.2194 35.3895 40.6791 35.2499 40.496L33.6127 34.4089ZM27.5422 30.4337L27.1755 31.7227L25.6336 32.07L26.1668 30.0826C26.5256 30.4306 26.8536 30.5833 27.5422 30.4337ZM36.0808 39.1859L36.2814 39.1747L36.3506 39.8107L36.1209 39.7994L36.0808 39.1859ZM36.4942 39.4088C36.4663 39.1708 36.4883 39.2448 36.6356 39.1646L36.6136 38.8661L36.8402 38.8675C36.9052 39.0581 36.9888 39.7505 36.927 39.8947L36.7536 39.9112L36.6894 39.6371C36.5231 39.5366 36.5294 39.709 36.4942 39.4088ZM31.7639 22.4503L32.1789 23.9671C31.9483 23.8163 31.8731 23.7204 31.4423 23.7265L31.5214 22.7002C31.3818 22.7529 31.4658 22.7164 31.3488 22.7953L31.7639 22.4503ZM23.3859 39.6163C23.3863 39.6167 23.3781 39.6222 23.3529 39.6374C23.3484 39.6392 23.3466 39.6397 23.3466 39.6392C23.3466 39.637 23.3851 39.6154 23.3859 39.6163ZM30.3762 22.6612C31.2871 22.4974 31.9035 21.6824 31.702 20.7989C31.5268 20.0311 30.7166 19.3777 29.6955 19.5748C27.4943 19.9996 28.1453 23.0624 30.3762 22.6612ZM27.4014 30.1098C28.3597 29.7887 27.8611 28.3855 26.8709 28.7427C25.8073 29.1263 26.4675 30.4229 27.4014 30.1098ZM26.8937 28.9474C27.636 28.632 28.0132 29.6629 27.3378 29.9169C26.6622 30.171 26.2045 29.2402 26.8937 28.9474ZM27.7211 27.8173C27.892 27.1946 28.6198 24.8119 28.5425 24.5242C28.0768 24.361 28.0943 24.8348 27.9824 25.2429C27.8841 25.6013 27.7933 25.9308 27.6955 26.2878C27.6017 26.6298 27.123 28.1951 27.1529 28.4355C27.6113 28.7215 27.6099 28.222 27.7211 27.8173ZM32.3247 27.6371C32.4012 27.9121 32.4691 28.6252 32.8283 28.4589C33.0822 28.3414 32.776 27.6577 32.7104 27.4248C32.611 27.0718 32.515 26.7132 32.4157 26.3468C32.3133 25.969 32.2179 25.6277 32.1188 25.2675C32.0528 25.0273 31.9743 24.3185 31.6612 24.4444C31.3717 24.5608 31.5631 24.8597 31.7316 25.4771L32.3247 27.6371ZM32.7145 28.9147C33.4672 28.6353 33.8084 29.6768 33.136 29.9003C32.418 30.139 32.0379 29.1659 32.7145 28.9147ZM33.2043 30.0941C34.1784 29.7617 33.6554 28.3778 32.6653 28.7237C31.6341 29.084 32.2546 30.4181 33.2043 30.0941ZM26.6642 31.4303C27.0181 31.3374 26.8454 30.7879 26.479 30.9251C26.0778 31.0753 26.2957 31.5272 26.6642 31.4303ZM26.7155 31.0745C26.7945 31.4615 26.2932 31.4383 26.4082 31.0494C26.5044 30.9776 26.6334 31.027 26.7155 31.0745ZM33.2751 30.7616C33.0706 30.8615 32.8632 31.036 33.0056 31.3634C33.0919 31.562 33.3691 31.7202 33.6751 31.6032C34.252 31.3828 33.878 30.4673 33.2751 30.7616ZM33.7909 30.9792C33.994 31.3102 33.7018 31.5977 33.3508 31.5123C33.3302 31.4409 33.2296 31.5843 33.4068 31.3848L33.6828 31.138C33.8097 31.0223 33.7489 31.1188 33.7909 30.9792ZM33.1447 31.4056C32.9225 30.9092 33.4606 30.6139 33.7909 30.9792L33.6538 30.8773C33.4388 30.9937 33.1987 31.1843 33.1447 31.4056Z" fill="#F9F9F9"/>
</svg>
